<?xml version="1.0" encoding="UTF-8" standalone="no"?>
<!-- Created with Inkscape (http://www.inkscape.org/) -->
<svg
   xmlns:dc="http://purl.org/dc/elements/1.1/"
   xmlns:cc="http://creativecommons.org/ns#"
   xmlns:rdf="http://www.w3.org/1999/02/22-rdf-syntax-ns#"
   xmlns:svg="http://www.w3.org/2000/svg"
   xmlns="http://www.w3.org/2000/svg"
   xmlns:sodipodi="http://sodipodi.sourceforge.net/DTD/sodipodi-0.dtd"
   xmlns:inkscape="http://www.inkscape.org/namespaces/inkscape"
   width="744.09448819"
   height="1052.3622047"
   id="svg2"
   sodipodi:version="0.32"
   inkscape:version="0.46"
   sodipodi:docname="bulles.svg"
   inkscape:output_extension="org.inkscape.output.svg.inkscape"
   inkscape:export-filename="/var/www/ecolefrancodanoise/images/bulles.png"
   inkscape:export-xdpi="100.11089"
   inkscape:export-ydpi="100.11089">
  <defs
     id="defs4">
    <inkscape:perspective
       sodipodi:type="inkscape:persp3d"
       inkscape:vp_x="0 : 526.18109 : 1"
       inkscape:vp_y="0 : 1000 : 0"
       inkscape:vp_z="744.09448 : 526.18109 : 1"
       inkscape:persp3d-origin="372.04724 : 350.78739 : 1"
       id="perspective10" />
  </defs>
  <sodipodi:namedview
     id="base"
     pagecolor="#ffffff"
     bordercolor="#666666"
     borderopacity="1.0"
     gridtolerance="10000"
     guidetolerance="10"
     objecttolerance="10"
     inkscape:pageopacity="0.0"
     inkscape:pageshadow="2"
     inkscape:zoom="0.35"
     inkscape:cx="613.27533"
     inkscape:cy="655.70833"
     inkscape:document-units="px"
     inkscape:current-layer="layer1"
     showgrid="false"
     inkscape:window-width="722"
     inkscape:window-height="689"
     inkscape:window-x="387"
     inkscape:window-y="0" />
  <metadata
     id="metadata7">
    <rdf:RDF>
      <cc:Work
         rdf:about="">
        <dc:format>image/svg+xml</dc:format>
        <dc:type
           rdf:resource="http://purl.org/dc/dcmitype/StillImage" />
      </cc:Work>
    </rdf:RDF>
  </metadata>
  <g
     inkscape:label="Layer 1"
     inkscape:groupmode="layer"
     id="layer1">
    <path
       sodipodi:type="arc"
       style="opacity:1;fill:#c3f96d;fill-opacity:1;stroke:#ff950e;stroke-width:0;stroke-linejoin:round;stroke-miterlimit:4;stroke-dasharray:none;stroke-dashoffset:0.55999999;stroke-opacity:0.94117647"
       id="path3164"
       sodipodi:cx="321.22852"
       sodipodi:cy="698.80878"
       sodipodi:rx="45.456863"
       sodipodi:ry="45.456863"
       d="M 366.68538,698.80878 A 45.456863,45.456863 0 1 1 275.77165,698.80878 A 45.456863,45.456863 0 1 1 366.68538,698.80878 z"
       transform="translate(303.44676,55.577933)" />
    <path
       sodipodi:type="arc"
       style="opacity:1;fill:#ff950e;fill-opacity:1;stroke:#ff950e;stroke-width:0;stroke-linejoin:round;stroke-miterlimit:4;stroke-dasharray:none;stroke-dashoffset:0.55999999;stroke-opacity:0.94117647"
       id="path3168"
       sodipodi:cx="321.22852"
       sodipodi:cy="698.80878"
       sodipodi:rx="45.456863"
       sodipodi:ry="45.456863"
       d="M 366.68538,698.80878 A 45.456863,45.456863 0 1 1 275.77165,698.80878 A 45.456863,45.456863 0 1 1 366.68538,698.80878 z"
       transform="translate(201.54451,-114.80479)" />
    <path
       sodipodi:type="arc"
       style="opacity:1;fill:#ffff00;fill-opacity:1;stroke:#ff950e;stroke-width:0;stroke-linejoin:round;stroke-miterlimit:4;stroke-dasharray:none;stroke-dashoffset:0.55999999;stroke-opacity:0.94117647"
       id="path3176"
       sodipodi:cx="307.08636"
       sodipodi:cy="553.3468"
       sodipodi:rx="23.233509"
       sodipodi:ry="23.233509"
       d="M 330.31987,553.3468 A 23.233509,23.233509 0 1 1 283.85286,553.3468 A 23.233509,23.233509 0 1 1 330.31987,553.3468 z"
       transform="translate(259.60921,272.74121)" />
    <path
       sodipodi:type="arc"
       style="opacity:1;fill:#ffff00;fill-opacity:1;stroke:#ff950e;stroke-width:0;stroke-linejoin:round;stroke-miterlimit:4;stroke-dasharray:none;stroke-dashoffset:0.55999999;stroke-opacity:0.94117647"
       id="path3178"
       sodipodi:cx="307.08636"
       sodipodi:cy="553.3468"
       sodipodi:rx="23.233509"
       sodipodi:ry="23.233509"
       d="M 330.31987,553.3468 A 23.233509,23.233509 0 1 1 283.85286,553.3468 A 23.233509,23.233509 0 1 1 330.31987,553.3468 z"
       transform="translate(312.35251,-16.234207)" />
    <path
       sodipodi:type="arc"
       style="opacity:1;fill:#c3f96d;fill-opacity:1;stroke:#ff950e;stroke-width:0;stroke-linejoin:round;stroke-miterlimit:4;stroke-dasharray:none;stroke-dashoffset:0.55999999;stroke-opacity:0.94117647"
       id="path3180"
       sodipodi:cx="307.08636"
       sodipodi:cy="553.3468"
       sodipodi:rx="23.233509"
       sodipodi:ry="23.233509"
       d="M 330.31987,553.3468 A 23.233509,23.233509 0 1 1 283.85286,553.3468 A 23.233509,23.233509 0 1 1 330.31987,553.3468 z"
       transform="translate(299.00516,70.7107)" />
    <path
       sodipodi:type="arc"
       style="opacity:1;fill:#83caff;fill-opacity:1;stroke:#ff950e;stroke-width:0;stroke-linejoin:round;stroke-miterlimit:4;stroke-dasharray:none;stroke-dashoffset:0.55999999;stroke-opacity:0.94117647"
       id="path3182"
       sodipodi:cx="307.08636"
       sodipodi:cy="553.3468"
       sodipodi:rx="23.233509"
       sodipodi:ry="23.233509"
       d="M 330.31987,553.3468 A 23.233509,23.233509 0 1 1 283.85286,553.3468 A 23.233509,23.233509 0 1 1 330.31987,553.3468 z"
       transform="translate(300.3322,-176.66284)" />
    <path
       sodipodi:type="arc"
       style="opacity:1;fill:#c5000b;fill-opacity:1;stroke:#ff950e;stroke-width:0;stroke-linejoin:round;stroke-miterlimit:4;stroke-dasharray:none;stroke-dashoffset:0.55999999;stroke-opacity:0.94117647"
       id="path3184"
       sodipodi:cx="307.08636"
       sodipodi:cy="553.3468"
       sodipodi:rx="23.233509"
       sodipodi:ry="23.233509"
       d="M 330.31987,553.3468 A 23.233509,23.233509 0 1 1 283.85286,553.3468 A 23.233509,23.233509 0 1 1 330.31987,553.3468 z"
       transform="translate(224.25387,-109.89124)" />
    <path
       sodipodi:type="arc"
       style="opacity:1;fill:#83caff;fill-opacity:1;stroke:#ff950e;stroke-width:0;stroke-linejoin:round;stroke-miterlimit:4;stroke-dasharray:none;stroke-dashoffset:0.55999999;stroke-opacity:0.94117647"
       id="path3188"
       sodipodi:cx="307.08636"
       sodipodi:cy="553.3468"
       sodipodi:rx="23.233509"
       sodipodi:ry="23.233509"
       d="M 330.31987,553.3468 A 23.233509,23.233509 0 1 1 283.85286,553.3468 A 23.233509,23.233509 0 1 1 330.31987,553.3468 z"
       transform="translate(270.72089,119.19802)" />
    <path
       sodipodi:type="arc"
       style="opacity:1;fill:#c3f96d;fill-opacity:1;stroke:#ff950e;stroke-width:0;stroke-linejoin:round;stroke-miterlimit:4;stroke-dasharray:none;stroke-dashoffset:0.55999999;stroke-opacity:0.94117647"
       id="path3194"
       sodipodi:cx="302.03561"
       sodipodi:cy="421.01685"
       sodipodi:rx="9.0913725"
       sodipodi:ry="9.0913725"
       d="M 311.12699,421.01685 A 9.0913725,9.0913725 0 1 1 292.94424,421.01685 A 9.0913725,9.0913725 0 1 1 311.12699,421.01685 z"
       transform="matrix(0.7,0,0,0.7,363.66875,25.260061)" />
    <path
       sodipodi:type="arc"
       style="opacity:1;fill:#c5000b;fill-opacity:1;stroke:#ff950e;stroke-width:0;stroke-linejoin:round;stroke-miterlimit:4;stroke-dasharray:none;stroke-dashoffset:0.55999999;stroke-opacity:0.94117647"
       id="path3198"
       sodipodi:cx="302.03561"
       sodipodi:cy="421.01685"
       sodipodi:rx="9.0913725"
       sodipodi:ry="9.0913725"
       d="M 311.12699,421.01685 A 9.0913725,9.0913725 0 1 1 292.94424,421.01685 A 9.0913725,9.0913725 0 1 1 311.12699,421.01685 z"
       transform="matrix(0.7,0,0,0.7,421.66587,-123.40568)" />
    <path
       sodipodi:type="arc"
       style="opacity:1;fill:#c5000b;fill-opacity:1;stroke:#ff950e;stroke-width:0;stroke-linejoin:round;stroke-miterlimit:4;stroke-dasharray:none;stroke-dashoffset:0.55999999;stroke-opacity:0.94117647"
       id="path3200"
       sodipodi:cx="302.03561"
       sodipodi:cy="421.01685"
       sodipodi:rx="9.0913725"
       sodipodi:ry="9.0913725"
       d="M 311.12699,421.01685 A 9.0913725,9.0913725 0 1 1 292.94424,421.01685 A 9.0913725,9.0913725 0 1 1 311.12699,421.01685 z"
       transform="matrix(0.7,0,0,0.7,462.76522,201.55886)" />
    <path
       sodipodi:type="arc"
       style="opacity:1;fill:#c5000b;fill-opacity:1;stroke:#ff950e;stroke-width:0;stroke-linejoin:round;stroke-miterlimit:4;stroke-dasharray:none;stroke-dashoffset:0.55999999;stroke-opacity:0.94117647"
       id="path3202"
       sodipodi:cx="302.03561"
       sodipodi:cy="421.01685"
       sodipodi:rx="9.0913725"
       sodipodi:ry="9.0913725"
       d="M 311.12699,421.01685 A 9.0913725,9.0913725 0 1 1 292.94424,421.01685 A 9.0913725,9.0913725 0 1 1 311.12699,421.01685 z"
       transform="matrix(0.7,0,0,0.7,294.63176,359.5067)" />
    <path
       sodipodi:type="arc"
       style="opacity:1;fill:#ff950e;fill-opacity:1;stroke:#ff950e;stroke-width:0;stroke-linejoin:round;stroke-miterlimit:4;stroke-dasharray:none;stroke-dashoffset:0.55999999;stroke-opacity:0.94117647"
       id="path3206"
       sodipodi:cx="302.03561"
       sodipodi:cy="421.01685"
       sodipodi:rx="9.0913725"
       sodipodi:ry="9.0913725"
       d="M 311.12699,421.01685 A 9.0913725,9.0913725 0 1 1 292.94424,421.01685 A 9.0913725,9.0913725 0 1 1 311.12699,421.01685 z"
       transform="translate(347.80937,-103.0653)" />
    <path
       sodipodi:type="arc"
       style="opacity:1;fill:#c3f96d;fill-opacity:1;stroke:#ff950e;stroke-width:0;stroke-linejoin:round;stroke-miterlimit:4;stroke-dasharray:none;stroke-dashoffset:0.55999999;stroke-opacity:0.94117647"
       id="path3208"
       sodipodi:cx="302.03561"
       sodipodi:cy="421.01685"
       sodipodi:rx="9.0913725"
       sodipodi:ry="9.0913725"
       d="M 311.12699,421.01685 A 9.0913725,9.0913725 0 1 1 292.94424,421.01685 A 9.0913725,9.0913725 0 1 1 311.12699,421.01685 z"
       transform="translate(230.14146,257.93551)" />
    <path
       sodipodi:type="arc"
       style="opacity:1;fill:#ff950e;fill-opacity:1;stroke:#ff950e;stroke-width:0;stroke-linejoin:round;stroke-miterlimit:4;stroke-dasharray:none;stroke-dashoffset:0.55999999;stroke-opacity:0.94117647"
       id="path3212"
       sodipodi:cx="302.03561"
       sodipodi:cy="421.01685"
       sodipodi:rx="9.0913725"
       sodipodi:ry="9.0913725"
       d="M 311.12699,421.01685 A 9.0913725,9.0913725 0 1 1 292.94424,421.01685 A 9.0913725,9.0913725 0 1 1 311.12699,421.01685 z"
       transform="translate(372.74628,421.23361)" />
    <path
       sodipodi:type="arc"
       style="opacity:1;fill:#c5000b;fill-opacity:1;stroke:#ff950e;stroke-width:0;stroke-linejoin:round;stroke-miterlimit:4;stroke-dasharray:none;stroke-dashoffset:0.55999999;stroke-opacity:0.94117647"
       id="path3214"
       sodipodi:cx="302.03561"
       sodipodi:cy="421.01685"
       sodipodi:rx="9.0913725"
       sodipodi:ry="9.0913725"
       d="M 311.12699,421.01685 A 9.0913725,9.0913725 0 1 1 292.94424,421.01685 A 9.0913725,9.0913725 0 1 1 311.12699,421.01685 z"
       transform="matrix(0.7,0,0,0.7,431.03208,289.92003)" />
    <path
       sodipodi:type="arc"
       style="opacity:1;fill:#ff950e;fill-opacity:1;stroke:#ff950e;stroke-width:0;stroke-linejoin:round;stroke-miterlimit:4;stroke-dasharray:none;stroke-dashoffset:0.55999999;stroke-opacity:0.94117647"
       id="path3216"
       sodipodi:cx="302.03561"
       sodipodi:cy="421.01685"
       sodipodi:rx="9.0913725"
       sodipodi:ry="9.0913725"
       d="M 311.12699,421.01685 A 9.0913725,9.0913725 0 1 1 292.94424,421.01685 A 9.0913725,9.0913725 0 1 1 311.12699,421.01685 z"
       transform="translate(286.4649,62.7433)" />
    <path
       sodipodi:type="arc"
       style="opacity:1;fill:#ff950e;fill-opacity:1;stroke:#ff950e;stroke-width:0;stroke-linejoin:round;stroke-miterlimit:4;stroke-dasharray:none;stroke-dashoffset:0.55999999;stroke-opacity:0.94117647"
       id="path3218"
       sodipodi:cx="541.44177"
       sodipodi:cy="363.43814"
       sodipodi:rx="16.162441"
       sodipodi:ry="16.162441"
       d="M 557.60421,363.43814 A 16.162441,16.162441 0 1 1 525.27933,363.43814 A 16.162441,16.162441 0 1 1 557.60421,363.43814 z"
       transform="translate(133.34014,262.63966)" />
    <path
       sodipodi:type="arc"
       style="opacity:1;fill:#ffff00;fill-opacity:0.94117647;stroke:#ff950e;stroke-width:0;stroke-linejoin:round;stroke-miterlimit:4;stroke-dasharray:none;stroke-dashoffset:0.55999999;stroke-opacity:0.94117647"
       id="path3224"
       sodipodi:cx="541.44177"
       sodipodi:cy="363.43814"
       sodipodi:rx="16.162441"
       sodipodi:ry="16.162441"
       d="M 557.60421,363.43814 A 16.162441,16.162441 0 1 1 525.27933,363.43814 A 16.162441,16.162441 0 1 1 557.60421,363.43814 z"
       transform="translate(-11.285001,6.5511267)" />
    <path
       sodipodi:type="arc"
       style="opacity:1;fill:#c5000b;fill-opacity:1;stroke:#ff950e;stroke-width:0;stroke-linejoin:round;stroke-miterlimit:4;stroke-dasharray:none;stroke-dashoffset:0.55999999;stroke-opacity:0.94117647"
       id="path3226"
       sodipodi:cx="541.44177"
       sodipodi:cy="363.43814"
       sodipodi:rx="16.162441"
       sodipodi:ry="16.162441"
       d="M 557.60421,363.43814 A 16.162441,16.162441 0 1 1 525.27933,363.43814 A 16.162441,16.162441 0 1 1 557.60421,363.43814 z"
       transform="translate(101.01525,299.00516)" />
    <path
       sodipodi:type="arc"
       style="opacity:1;fill:#c5000b;fill-opacity:1;stroke:#ff950e;stroke-width:0;stroke-linejoin:round;stroke-miterlimit:4;stroke-dasharray:none;stroke-dashoffset:0.55999999;stroke-opacity:0.94117647"
       id="path3248"
       sodipodi:cx="302.03561"
       sodipodi:cy="421.01685"
       sodipodi:rx="9.0913725"
       sodipodi:ry="9.0913725"
       d="M 311.12699,421.01685 A 9.0913725,9.0913725 0 1 1 292.94424,421.01685 A 9.0913725,9.0913725 0 1 1 311.12699,421.01685 z"
       transform="matrix(0.7,0,0,0.7,376.97406,131.9896)" />
    <path
       sodipodi:type="arc"
       style="opacity:1;fill:#ffff00;fill-opacity:0.94117647;stroke:#ff950e;stroke-width:0;stroke-linejoin:round;stroke-miterlimit:4;stroke-dasharray:none;stroke-dashoffset:0.55999999;stroke-opacity:0.94117647"
       id="path3252"
       sodipodi:cx="541.44177"
       sodipodi:cy="363.43814"
       sodipodi:rx="16.162441"
       sodipodi:ry="16.162441"
       d="M 557.60421,363.43814 A 16.162441,16.162441 0 1 1 525.27933,363.43814 A 16.162441,16.162441 0 1 1 557.60421,363.43814 z"
       transform="translate(97.464844,88.876011)" />
    <path
       sodipodi:type="arc"
       style="opacity:1;fill:#c3f96d;fill-opacity:1;stroke:#ff950e;stroke-width:0;stroke-linejoin:round;stroke-miterlimit:4;stroke-dasharray:none;stroke-dashoffset:0.55999999;stroke-opacity:0.94117647"
       id="path3254"
       sodipodi:cx="302.03561"
       sodipodi:cy="421.01685"
       sodipodi:rx="9.0913725"
       sodipodi:ry="9.0913725"
       d="M 311.12699,421.01685 A 9.0913725,9.0913725 0 1 1 292.94424,421.01685 A 9.0913725,9.0913725 0 1 1 311.12699,421.01685 z"
       transform="matrix(0.7,0,0,0.7,440.00363,100.50753)" />
    <path
       sodipodi:type="arc"
       style="opacity:1;fill:#c3f96d;fill-opacity:1;stroke:#ff950e;stroke-width:0;stroke-linejoin:round;stroke-miterlimit:4;stroke-dasharray:none;stroke-dashoffset:0.55999999;stroke-opacity:0.94117647"
       id="path3256"
       sodipodi:cx="541.44177"
       sodipodi:cy="363.43814"
       sodipodi:rx="16.162441"
       sodipodi:ry="16.162441"
       d="M 557.60421,363.43814 A 16.162441,16.162441 0 1 1 525.27933,363.43814 A 16.162441,16.162441 0 1 1 557.60421,363.43814 z"
       transform="translate(-10.896318,144.66719)" />
    <path
       sodipodi:type="arc"
       style="opacity:1;fill:#ffff00;fill-opacity:1;stroke:#ff950e;stroke-width:0;stroke-linejoin:round;stroke-miterlimit:4;stroke-dasharray:none;stroke-dashoffset:0.55999999;stroke-opacity:0.94117647"
       id="path3258"
       sodipodi:cx="302.03561"
       sodipodi:cy="421.01685"
       sodipodi:rx="9.0913725"
       sodipodi:ry="9.0913725"
       d="M 311.12699,421.01685 A 9.0913725,9.0913725 0 1 1 292.94424,421.01685 A 9.0913725,9.0913725 0 1 1 311.12699,421.01685 z"
       transform="matrix(0.7,0,0,0.7,406.09517,5.0570082)" />
  </g>
</svg>
